<?xml version="1.0" standalone="no"?>
<!DOCTYPE svg PUBLIC "-//W3C//DTD SVG 20010904//EN"
 "http://www.w3.org/TR/2001/REC-SVG-20010904/DTD/svg10.dtd">
<svg version="1.0" xmlns="http://www.w3.org/2000/svg"
 width="700.000000pt" height="700.000000pt" viewBox="0 0 700.000000 700.000000"
 preserveAspectRatio="xMidYMid meet">
<metadata>
Created by potrace 1.11, written by Peter Selinger 2001-2013
</metadata>
<g transform="translate(0.000000,700.000000) scale(0.100000,-0.100000)"
fill="#000000" stroke="none">
<path d="M3487 6984 c-1 -1 -60 -4 -132 -7 -71 -4 -139 -8 -150 -10 -11 -3
-47 -8 -80 -12 -283 -32 -667 -164 -940 -322 -144 -84 -344 -226 -420 -298
-12 -11 -48 -45 -81 -76 -48 -46 -148 -151 -217 -229 -57 -64 -199 -268 -254
-365 -130 -228 -254 -543 -286 -725 -3 -14 -10 -43 -15 -65 -6 -22 -13 -59
-16 -82 -14 -102 -18 -128 -22 -134 -2 -4 -32 -21 -66 -39 -298 -154 -507
-457 -546 -795 -9 -78 -8 -248 2 -310 37 -241 136 -434 307 -603 34 -34 66
-62 70 -62 4 0 14 -6 21 -13 18 -18 93 -66 147 -94 l45 -22 1 -104 c2 -113 2
-111 105 -352 28 -66 55 -124 61 -130 5 -5 9 -14 9 -21 0 -7 17 -47 37 -91 21
-43 38 -80 38 -83 1 -5 29 -62 52 -105 6 -11 32 -63 58 -115 26 -52 66 -129
88 -170 22 -41 51 -95 64 -119 12 -24 27 -49 32 -55 4 -6 22 -36 38 -66 71
-130 328 -535 384 -604 5 -6 44 -57 86 -112 236 -307 435 -485 621 -553 l63
-24 907 0 c900 0 907 1 969 22 54 18 188 91 203 110 3 3 21 18 40 32 49 37
193 180 265 264 108 126 365 480 365 503 0 6 4 12 8 14 11 4 116 173 219 353
39 67 55 96 120 215 44 80 186 363 226 450 47 102 107 236 112 250 6 17 20 51
37 90 81 185 81 185 82 293 l1 102 70 39 c133 74 255 183 341 303 47 66 124
213 124 237 0 8 4 17 8 20 8 4 29 84 38 141 16 98 20 143 19 230 -2 113 -11
197 -30 271 -76 296 -258 524 -535 672 l-55 29 -11 74 c-21 132 -23 143 -49
249 -44 177 -99 326 -196 535 -12 28 -25 52 -28 55 -3 3 -17 27 -31 55 -39 77
-191 301 -265 390 -95 114 -243 264 -351 355 -221 186 -532 363 -809 460 -163
58 -393 115 -500 125 -27 3 -61 7 -75 10 -14 3 -72 8 -130 11 -58 3 -124 6
-148 8 -23 1 -43 1 -45 0z m-2214 -3138 c89 -30 196 -64 237 -76 41 -11 98
-27 125 -35 28 -9 60 -17 73 -20 45 -10 58 -13 102 -25 25 -7 53 -14 62 -16
10 -2 28 -6 41 -10 12 -3 32 -7 45 -9 48 -9 69 -14 122 -25 30 -6 78 -15 105
-20 28 -5 61 -11 75 -14 24 -4 150 -24 200 -31 54 -8 107 -15 158 -20 28 -3
76 -8 105 -11 188 -22 365 -28 777 -29 362 0 618 7 690 19 14 2 61 8 105 12
44 4 82 8 85 9 3 1 41 5 85 10 125 13 175 21 265 40 36 8 84 17 107 19 23 3
61 10 85 15 24 6 58 13 76 16 19 3 73 15 120 26 48 11 98 23 112 25 14 3 39 9
57 15 17 5 44 12 60 15 15 2 48 11 73 19 25 8 108 34 185 59 77 24 171 56 209
70 37 14 71 26 75 26 3 0 7 -265 8 -589 l2 -589 -62 -23 c-34 -12 -68 -27 -74
-32 -7 -5 -13 -6 -13 -2 0 4 -6 3 -12 -2 -7 -6 -31 -16 -53 -22 -22 -7 -49
-16 -60 -21 -64 -27 -397 -124 -505 -146 -172 -35 -376 -74 -418 -80 -26 -3
-56 -8 -67 -10 -43 -9 -199 -29 -295 -39 -25 -2 -65 -7 -90 -10 -25 -2 -76 -7
-115 -10 -38 -3 -99 -8 -135 -11 -205 -18 -757 -18 -1000 0 -194 14 -228 17
-256 21 -17 2 -57 7 -90 10 -32 4 -70 8 -84 10 -14 2 -50 6 -80 10 -30 3 -76
11 -101 16 -25 6 -50 9 -55 8 -5 -2 -22 0 -39 4 -16 4 -46 9 -65 12 -19 3 -57
10 -85 15 -27 5 -61 12 -75 14 -30 6 -189 41 -245 55 -22 5 -51 12 -65 15 -24
5 -52 14 -280 87 -52 17 -102 32 -110 34 -31 6 -147 49 -206 75 l-61 27 0 587
c0 322 2 586 4 586 3 0 77 -24 166 -54z m72 -1472 c88 -29 169 -55 180 -57 11
-2 27 -7 35 -10 8 -3 53 -16 100 -28 76 -19 120 -29 199 -45 14 -3 28 -7 32
-9 4 -3 24 -7 45 -10 22 -4 53 -10 69 -15 17 -5 48 -11 70 -14 22 -3 54 -8 70
-11 69 -13 130 -23 180 -30 22 -3 51 -7 65 -10 14 -3 45 -7 70 -10 25 -2 56
-6 70 -9 51 -9 275 -30 440 -42 323 -22 913 -17 1195 11 22 2 69 7 105 10 36
3 75 7 85 9 11 2 56 7 100 11 44 4 82 8 85 10 3 2 33 7 65 10 33 4 69 9 80 11
11 3 38 7 60 10 42 6 66 10 100 17 11 3 40 8 65 12 25 4 54 9 65 12 11 2 43 8
70 13 68 14 71 14 230 55 77 20 147 38 155 40 8 2 42 12 75 23 33 11 101 32
150 47 50 16 95 31 100 34 18 12 86 33 91 28 2 -2 -2 -17 -11 -33 -8 -16 -15
-32 -15 -36 0 -16 -83 -183 -94 -190 -10 -7 -272 -95 -306 -104 -8 -2 -49 -13
-90 -24 -84 -23 -75 -21 -190 -49 -85 -20 -319 -68 -375 -76 -16 -2 -41 -6
-54 -9 -12 -3 -42 -8 -65 -10 -22 -3 -54 -8 -71 -12 -40 -7 -87 -13 -235 -29
-30 -3 -74 -8 -97 -11 -44 -5 -113 -10 -243 -20 -330 -23 -856 -18 -1155 11
-22 2 -67 6 -100 9 -33 4 -80 9 -105 12 -25 3 -63 8 -85 10 -69 8 -98 12 -165
23 -36 6 -81 12 -100 15 -19 2 -46 7 -60 10 -14 3 -40 8 -57 11 -18 3 -48 7
-65 10 -18 3 -44 8 -58 12 -14 3 -32 7 -40 9 -33 6 -86 17 -95 20 -5 2 -23 6
-40 9 -59 12 -230 56 -255 65 -14 6 -34 11 -45 13 -11 2 -27 7 -35 10 -8 3
-67 21 -131 41 -113 36 -159 58 -159 77 0 5 -22 59 -50 120 -27 61 -50 113
-50 116 0 3 8 2 18 -2 9 -4 89 -31 177 -61z m2834 -1428 c56 -54 54 -138 -5
-182 l-35 -27 -632 0 c-434 1 -641 4 -659 12 -94 37 -83 194 15 219 16 4 311
7 657 7 l629 0 30 -29z"/>
</g>
</svg>
